<?xml version="1.0" encoding="utf-8"?>
<!-- Generator: Adobe Illustrator 25.0.1, SVG Export Plug-In . SVG Version: 6.00 Build 0)  -->
<svg version="1.1" id="Layer_1" xmlns="http://www.w3.org/2000/svg" xmlns:xlink="http://www.w3.org/1999/xlink" x="0px" y="0px"
	 viewBox="0 0 500 150" style="enable-background:new 0 0 500 150;" xml:space="preserve">
<style type="text/css">
	.st0{fill:#FF1D25;}
	.st1{fill:#00FFFF;}
	.st2{fill:#FF931E;}
	.st3{fill:#8CC63F;}
	.st4{fill:#359FDC;}
	.st5{fill:#00A99D;}
	.st6{clip-path:url(#SVGID_2_);fill:#29332B;}
	.st7{clip-path:url(#SVGID_2_);fill:#69706B;}
	.st8{clip-path:url(#SVGID_2_);fill:#6E6E68;}
	.st9{clip-path:url(#SVGID_2_);fill:#3E3D4D;}
	.st10{clip-path:url(#SVGID_2_);}
	.st11{fill:#64635D;}
	.st12{fill:#29332B;}
	.st13{fill:#5A625C;}
	.st14{fill:#4D4545;}
	.st15{fill:#4D4B45;}
</style>
<g>
	<g>
		<path class="st0" d="M372.9,58.7l6.6,21.4c1.4-3.6,6.1-13.4,15-17.1l-7-19.4C387.5,43.5,378.6,43.9,372.9,58.7z"/>
		<path class="st1" d="M412.3,37.1l-7.2-16.9c-0.9,0-1.8,0-2.9,0c-9.4-0.4-16.3,1.8-21.4,5.1l6.4,18.4C387.5,43.5,400,32.3,412.3,37.1z"/>
		<path class="st2" d="M394.5,63l4.7,10.7c4.7-3.4,10.6-5.9,19-5.9c3,0,5.7-0.1,8.2-0.3l-5.5-13.3C420.9,54.2,403.2,51.7,394.5,63z"/>
		<path class="st3" d="M441.9,7.8c-0.3-0.5-0.7-0.9-1.3-1c-0.5-0.1-1.2,0.1-1.4,0.7c0,0.1-3.6,4.6-11.5,8.2l6.9,15.4c0,0,8.1-2.5,14.2-7.7L441.9,7.8z"/>
		<path class="st4" d="M412.3,37.1l8.5,17.1c0,0,12.1,2.5,22.8-5.5l-9.1-17.6C434.6,31.1,429.4,38,412.3,37.1z"/>
		<path class="st5" d="M458.9,46l-1.7-3.8c-3.1,2.2-7.6,4.7-13.6,6.4l5.6,11.9c3.8-2.9,6.1-6.3,8.3-9.8c0.4-0.5,1.2-2.3,1.2-2.3C459,48.2,459.3,47.4,458.9,46z"/>
	</g>
	<g>
		<defs>
			<rect id="SVGID_1_" x="-18" y="4.5" width="507" height="97.9"/>
		</defs>
		<clipPath id="SVGID_2_">
			<use xlink:href="#SVGID_1_"  style="overflow:visible;"/>
		</clipPath>
		<path class="st6" d="M83.9,25.3v14.1H36.3v7.4h45.3v13.7H36.3v19.1H18V25.3H83.9z"/>
		<path class="st7" d="M107.3,25.3v24c0,12.1,5.2,17.1,18.2,17.1c13,0,18.2-5.1,18.2-17.1v-24h17.8v24.9c0,21-11.8,30.2-36.2,30.2c-24.4,0-36.2-9.2-36.2-30.2V25.3H107.3z"/>
		<path class="st8" d="M186.8,25.3v40.2h44.6v14.1h-62.9V25.3H186.8z"/>
		<path class="st9" d="M255,25.3v40.2h44.6v14.1h-62.9V25.3H255z"/>
		<path class="st10" d="M367,25.3l-34,34.6v19.6h-18.3V59.9l-34.1-34.6h23.2l20.5,21.1l20.4-21.1H367z"/>
	</g>
	<g>
		<path class="st11" d="M11.7,123.8h17.9c1,6,9.3,8.2,23,8.2c12.7,0,17.1-1.6,17.1-4.9c0-2.4-2.3-3.3-9-3.9c-6.7-0.6-21.3-0.9-31.1-2.4c-9.8-1.5-15.9-5.2-15.9-14.5c0-11.8,11.8-18.1,34.5-18.1c24.7,0,37,6.6,38,19.3H68.3c-1-5-8.1-6.9-21.1-6.9c-11,0-14.9,1.4-14.9,4.1c0,2.3,2.2,3.1,9.1,3.7c6.9,0.7,21,0.9,31.2,2.3c10,1.4,15.7,5.9,15.7,14.7c0,13.2-14.1,19-36.8,19C26.1,144.3,12.6,138.3,11.7,123.8z"/>
		<path d="M91.2,116.3c0-18.3,14.6-28,41.2-28s41.2,9.8,41.2,28c0,18.3-14.6,28-41.2,28S91.2,134.5,91.2,116.3z M154.7,116.3c0-7.7-5.1-14.1-22.2-14.1s-22.2,6.4-22.2,14.1s5.1,14.1,22.2,14.1S154.7,123.9,154.7,116.3z"/>
		<path class="st12" d="M252.6,129.3v14.1h-18.3V130c0-4.7-2.7-6.8-8-6.8h-28.9v20.2h-18.3V89.1h49.6c13.1,0,23,2.8,23,14.6c0,6.9-3.8,10.6-8.7,12.1C248.8,117.5,252.6,122.2,252.6,129.3z M233,106.6c0-3.4-2.7-4-7.2-4h-28.4v8h29.1C230.6,110.6,233,109.8,233,106.6z"/>
		<path class="st13" d="M256.6,103.1v-14h76.3v14h-29v40.3h-18.3v-40.3H256.6z"/>
		<path class="st14" d="M404.3,130v13.4h-66.1V89.1H404v13.4h-47.9v7.4h45.6V122h-45.6v8H404.3z"/>
		<path class="st15" d="M486.6,116.3c0,18.1-14.9,27.1-39.8,27.1h-36.5V89.1h36.5C471.7,89.1,486.6,98.1,486.6,116.3z M467.6,116.3c0-7.9-5.8-13.1-20.8-13.1h-18.3v26.2h18.3C461.8,129.3,467.6,124.2,467.6,116.3z"/>
	</g>
</g>
</svg>
