<svg xmlns="http://www.w3.org/2000/svg" viewBox="0 0 426 96" width="426" height="96">
<path d="M28.768 25.199999999999996Q30.240000000000002 25.199999999999996 31.264000000000003 24.944Q32.288000000000004 24.688000000000002 33.136 24.448Q33.984 24.208 34.816 24.208Q36.352000000000004 24.208 37.120000000000005 24.959999999999997Q37.888 25.711999999999996 38.4 27.503999999999998L41.216 37.232Q41.504 38.224000000000004 40.912 38.912Q40.32 39.599999999999994 39.264 39.76Q38.432 39.888 37.6 39.584Q36.768 39.28 36.224000000000004 38.192Q34.496 34.736 32.864000000000004 32.928Q31.232 31.119999999999997 29.503999999999998 30.447999999999997Q27.776 29.775999999999996 25.664 29.775999999999996H22.208000000000002V62.896Q22.208000000000002 63.696 22.576 64.256Q22.944 64.816 23.84 65.008L25.76 65.424Q26.784 65.648 27.232 66.208Q27.68 66.768 27.68 67.824Q27.68 68.816 27.008000000000003 69.408Q26.336000000000002 70.0 24.928 70.0H5.6000000000000005Q4.192 70.0 3.52 69.408Q2.848 68.816 2.848 67.824Q2.848 66.096 4.5120000000000005 65.456L5.728 65.008Q6.5600000000000005 64.688 6.960000000000001 64.19200000000001Q7.36 63.696 7.36 62.896V32.304Q7.36 31.503999999999998 6.960000000000001 31.008Q6.5600000000000005 30.512 5.728 30.192L4.5120000000000005 29.744Q2.848 29.104 2.848 27.375999999999998Q2.848 26.351999999999997 3.52 25.775999999999996Q4.192 25.199999999999996 5.6000000000000005 25.199999999999996ZM16.864 46.352000000000004H25.504Q27.52 46.352000000000004 28.384 45.552Q29.248 44.751999999999995 30.048000000000002 42.352000000000004Q30.368000000000002 41.391999999999996 30.944000000000003 41.007999999999996Q31.52 40.623999999999995 32.288000000000004 40.623999999999995Q34.144 40.623999999999995 34.56 42.384L37.056 52.56Q37.344 53.712 36.992000000000004 54.352000000000004Q36.64 54.992 35.808 55.312Q34.912 55.632 34.128 55.36Q33.344 55.088 32.64 54.16Q31.712 52.848 30.896 52.128Q30.080000000000002 51.408 29.024 51.120000000000005Q27.968 50.832 26.272000000000002 50.832H16.864Z M67.04 63.44V63.024H66.56V48.239999999999995Q66.56 47.216 66.28800000000001 46.784000000000006Q66.016 46.352000000000004 65.47200000000001 46.192L64.768 45.968Q64.096 45.744 63.792 45.328Q63.488 44.912 63.488 44.272Q63.488 43.504 63.903999999999996 43.056Q64.32 42.608000000000004 65.47200000000001 42.16L72.576 39.408Q74.208 38.768 75.21600000000001 38.480000000000004Q76.224 38.192 77.184 38.192Q78.624 38.192 79.376 39.007999999999996Q80.128 39.824 80.128 41.072V63.28Q80.128 64.56 80.32 65.088Q80.512 65.616 80.992 65.84L81.696 66.16Q82.432 66.48 82.75200000000001 66.96000000000001Q83.072 67.44 83.072 68.08Q83.072 68.976 82.49600000000001 69.488Q81.92 70.0 80.64 70.0H72.8Q70.528 70.0 68.784 68.048Q67.04 66.096 67.04 63.44ZM45.888000000000005 60.656V48.239999999999995Q45.888000000000005 47.216 45.616 46.784000000000006Q45.344 46.352000000000004 44.800000000000004 46.192L44.096000000000004 45.968Q43.424 45.744 43.120000000000005 45.328Q42.816 44.912 42.816 44.272Q42.816 43.504 43.232 43.056Q43.648 42.608000000000004 44.800000000000004 42.16L51.904 39.408Q53.632000000000005 38.736000000000004 54.624 38.464Q55.616 38.192 56.384 38.192Q57.92 38.192 58.688 39.007999999999996Q59.456 39.824 59.456 41.072V58.736000000000004Q59.456 60.784 60.400000000000006 61.808Q61.344 62.832 63.040000000000006 62.832Q64.096 62.832 65.248 62.416Q66.4 62.0 67.296 61.2L68.416 60.208L70.336 62.256L69.376 63.152Q64.864 67.472 61.536 69.184Q58.208 70.896 55.424 70.896Q51.168 70.896 48.528000000000006 68.048Q45.888000000000005 65.2 45.888000000000005 60.656Z M103.29599999999999 24.560000000000002V63.28Q103.29599999999999 64.56 103.488 65.088Q103.67999999999999 65.616 104.16 65.84L104.864 66.16Q105.6 66.48 105.91999999999999 66.96000000000001Q106.24 67.44 106.24 68.08Q106.24 68.976 105.66399999999999 69.488Q105.088 70.0 103.80799999999999 70.0H89.216Q87.93599999999999 70.0 87.35999999999999 69.488Q86.78399999999999 68.976 86.78399999999999 68.08Q86.78399999999999 67.44 87.10399999999998 66.96000000000001Q87.42399999999999 66.48 88.16 66.16L88.864 65.84Q89.344 65.616 89.536 65.088Q89.728 64.56 89.728 63.28V31.728Q89.728 30.704 89.45599999999999 30.272Q89.184 29.839999999999996 88.64 29.68L87.93599999999999 29.455999999999996Q87.264 29.232 86.96 28.816Q86.65599999999999 28.4 86.65599999999999 27.759999999999998Q86.65599999999999 26.991999999999997 87.072 26.543999999999997Q87.488 26.095999999999997 88.64 25.647999999999996L95.744 22.896Q97.472 22.223999999999997 98.464 21.951999999999998Q99.456 21.68 100.224 21.68Q101.75999999999999 21.68 102.52799999999999 22.496Q103.29599999999999 23.311999999999998 103.29599999999999 24.560000000000002Z M125.82399999999998 24.560000000000002V63.28Q125.82399999999998 64.56 126.01599999999999 65.088Q126.20799999999998 65.616 126.68799999999999 65.84L127.392 66.16Q128.128 66.48 128.44799999999998 66.96000000000001Q128.768 67.44 128.768 68.08Q128.768 68.976 128.192 69.488Q127.61599999999999 70.0 126.33599999999998 70.0H111.74399999999999Q110.46399999999998 70.0 109.88799999999998 69.488Q109.31199999999998 68.976 109.31199999999998 68.08Q109.31199999999998 67.44 109.63199999999998 66.96000000000001Q109.95199999999998 66.48 110.68799999999999 66.16L111.392 65.84Q111.87199999999999 65.616 112.064 65.088Q112.25599999999999 64.56 112.25599999999999 63.28V31.728Q112.25599999999999 30.704 111.98399999999998 30.272Q111.71199999999999 29.839999999999996 111.16799999999999 29.68L110.46399999999998 29.455999999999996Q109.79199999999999 29.232 109.48799999999999 28.816Q109.18399999999998 28.4 109.18399999999998 27.759999999999998Q109.18399999999998 26.991999999999997 109.6 26.543999999999997Q110.01599999999999 26.095999999999997 111.16799999999999 25.647999999999996L118.27199999999999 22.896Q119.99999999999999 22.223999999999997 120.99199999999999 21.951999999999998Q121.984 21.68 122.752 21.68Q124.28799999999998 21.68 125.05599999999998 22.496Q125.82399999999998 23.311999999999998 125.82399999999998 24.560000000000002Z M155.77599999999998 63.728 148.35199999999998 75.728 133.664 45.456Q133.11999999999998 44.304 132.57599999999996 43.84Q132.03199999999998 43.376 131.16799999999998 42.96Q130.528 42.64 130.23999999999998 42.208Q129.95199999999997 41.775999999999996 129.95199999999997 41.072Q129.95199999999997 40.176 130.57599999999996 39.664Q131.2 39.152 132.28799999999998 39.152H149.504Q150.55999999999997 39.152 151.18399999999997 39.664Q151.808 40.176 151.808 41.072Q151.808 41.775999999999996 151.44 42.208Q151.07199999999997 42.64 150.23999999999998 42.896L149.37599999999998 43.152Q148.09599999999998 43.536 147.87199999999996 44.4Q147.64799999999997 45.263999999999996 148.54399999999998 47.344ZM148.54399999999998 72.752 149.43999999999997 70.704 151.16799999999998 67.472 158.97599999999997 47.983999999999995Q159.808 45.936 159.584 44.864000000000004Q159.35999999999999 43.792 158.04799999999997 43.376L156.992 43.024Q156.19199999999998 42.768 155.79199999999997 42.272Q155.392 41.775999999999996 155.392 41.072Q155.392 40.176 156.016 39.664Q156.64 39.152 157.69599999999997 39.152H166.688Q167.77599999999998 39.152 168.39999999999998 39.664Q169.02399999999997 40.176 169.02399999999997 41.072Q169.02399999999997 41.647999999999996 168.688 42.111999999999995Q168.35199999999998 42.576 167.58399999999997 42.992000000000004Q166.39999999999998 43.599999999999994 165.56799999999998 44.528Q164.736 45.456 163.904 47.536L154.14399999999998 71.184Q151.87199999999999 76.688 150.03199999999998 79.664Q148.19199999999998 82.64 146.04799999999997 83.77600000000001Q143.90399999999997 84.912 140.70399999999998 84.912Q136.064 84.912 133.31199999999998 82.432Q130.55999999999997 79.952 130.55999999999997 76.176Q130.55999999999997 73.488 131.93599999999998 71.936Q133.31199999999998 70.384 135.61599999999999 70.384Q137.88799999999998 70.384 139.07199999999997 71.664Q140.25599999999997 72.944 141.18399999999997 75.088L141.856 76.624Q142.30399999999997 77.68 142.89599999999996 78.28800000000001Q143.48799999999997 78.896 144.128 78.896Q144.736 78.896 145.26399999999998 78.52799999999999Q145.79199999999997 78.16 146.55999999999997 76.848Q147.32799999999997 75.536 148.54399999999998 72.752Z M203.872 70.96Q201.664 70.96 200.064 70.512Q198.464 70.064 197.376 69.616Q196.288 69.168 195.552 69.168Q194.784 69.168 194.16 69.47200000000001Q193.536 69.776 192.94400000000002 70.16Q192.352 70.544 191.744 70.848Q191.136 71.152 190.432 71.152Q189.44 71.152 188.8 70.576Q188.16 70.0 187.936 68.656L186.112 57.744Q185.984 56.816 186.416 56.144000000000005Q186.84799999999998 55.472 187.84 55.12Q188.928 54.736 189.744 55.135999999999996Q190.56 55.536 191.168 56.72Q193.184 60.496 195.072 62.57600000000001Q196.96 64.656 198.864 65.47200000000001Q200.768 66.288 202.784 66.288Q205.44 66.288 207.04 65.056Q208.64 63.824 208.64 61.552Q208.64 60.016 207.87199999999999 58.864000000000004Q207.10399999999998 57.712 204.832 56.624Q202.56 55.536 198.016 54.224000000000004Q193.024 52.751999999999995 190.01600000000002 50.70399999999999Q187.008 48.656 185.664 45.68Q184.32 42.704 184.32 38.576Q184.32 34.448 186.336 31.232Q188.352 28.016 192.07999999999998 26.192Q195.808 24.368000000000002 200.864 24.368000000000002Q203.488 24.368000000000002 205.328 24.816Q207.168 25.263999999999996 208.48000000000002 25.727999999999998Q209.792 26.192 210.752 26.192Q211.552 26.192 212.176 25.695999999999998Q212.8 25.199999999999996 213.52 24.688Q214.24 24.176000000000002 215.328 24.176000000000002Q216.352 24.176000000000002 217.05599999999998 24.832Q217.76 25.488 218.272 27.311999999999998L221.12 37.808Q221.44 38.992000000000004 221.024 39.904Q220.608 40.816 219.552 41.168Q218.464 41.519999999999996 217.648 41.104Q216.832 40.688 216.288 39.664Q214.24 35.632 211.92000000000002 33.312Q209.6 30.991999999999997 207.248 30.016Q204.896 29.04 202.688 29.04Q200.16 29.04 198.768 30.432Q197.376 31.823999999999998 197.376 34.032Q197.376 35.44 198.07999999999998 36.608Q198.784 37.775999999999996 201.00799999999998 38.992Q203.232 40.208 207.712 41.775999999999996Q212.608 43.471999999999994 215.55200000000002 45.535999999999994Q218.496 47.599999999999994 219.824 50.336Q221.152 53.072 221.152 56.784Q221.152 60.72 219.072 63.936Q216.992 67.152 213.136 69.056Q209.28 70.96 203.872 70.96Z M243.648 38.192Q249.088 38.192 253.152 40.256Q257.216 42.32 259.472 46.032Q261.728 49.744 261.728 54.672Q261.728 59.216 259.36 62.896Q256.99199999999996 66.576 252.81599999999997 68.73599999999999Q248.64 70.896 243.136 70.896Q237.696 70.896 233.632 68.8Q229.56799999999998 66.704 227.31199999999998 62.992Q225.05599999999998 59.28 225.05599999999998 54.416Q225.05599999999998 49.775999999999996 227.42399999999998 46.111999999999995Q229.792 42.448 233.968 40.32Q238.14399999999998 38.192 243.648 38.192ZM245.98399999999998 66.256Q247.2 65.968 247.83999999999997 64.56Q248.48 63.152 248.416 60.464Q248.35199999999998 57.775999999999996 247.456 53.647999999999996Q246.624 49.68 245.584 47.184Q244.54399999999998 44.688 243.32799999999997 43.6Q242.112 42.512 240.79999999999998 42.832Q239.584 43.120000000000005 238.94400000000002 44.528000000000006Q238.304 45.936 238.38400000000001 48.608000000000004Q238.464 51.28 239.32799999999997 55.44Q240.16 59.376 241.216 61.888000000000005Q242.272 64.4 243.47199999999998 65.47200000000001Q244.672 66.544 245.98399999999998 66.256Z M280.48 52.528Q280.48 47.632 281.76 44.44799999999999Q283.04 41.263999999999996 285.168 39.727999999999994Q287.296 38.192 289.824 38.192Q293.216 38.192 295.024 40.224000000000004Q296.832 42.256 296.832 46.352000000000004Q296.832 50.544 295.15200000000004 52.528Q293.47200000000004 54.512 290.784 54.512Q288.064 54.512 286.704 53.12Q285.344 51.727999999999994 285.344 49.263999999999996V47.92Q285.312 47.088 284.976 46.656000000000006Q284.64 46.224000000000004 283.93600000000004 46.224000000000004Q283.296 46.224000000000004 282.8 46.784000000000006Q282.30400000000003 47.344 282.016 48.608000000000004Q281.728 49.872 281.728 52.016ZM280.832 41.072 281.728 47.76V63.28Q281.728 64.4 282.048 64.864Q282.368 65.328 283.52000000000004 65.55199999999999L285.952 66.032Q286.91200000000003 66.224 287.36 66.70400000000001Q287.808 67.184 287.808 68.048Q287.808 68.976 287.18399999999997 69.488Q286.56 70.0 285.344 70.0H267.648Q266.368 70.0 265.79200000000003 69.488Q265.216 68.976 265.216 68.08Q265.216 67.44 265.536 66.96000000000001Q265.856 66.48 266.59200000000004 66.16L267.296 65.84Q267.776 65.616 267.968 65.088Q268.16 64.56 268.16 63.28V48.367999999999995Q268.16 47.344 267.88800000000003 46.912000000000006Q267.616 46.480000000000004 267.072 46.32L266.368 46.096000000000004Q265.696 45.872 265.39200000000005 45.456Q265.088 45.04 265.088 44.4Q265.088 43.632 265.52 43.168Q265.952 42.704 267.072 42.288L273.952 39.599999999999994Q276.224 38.704 277.216 38.448Q278.208 38.192 278.752 38.192Q279.648 38.192 280.12800000000004 38.848Q280.608 39.504 280.832 41.072Z M300.672 43.312 299.648 42.896Q298.944 42.608000000000004 298.592 42.160000000000004Q298.24 41.712 298.24 41.072Q298.24 40.144 298.86400000000003 39.647999999999996Q299.488 39.152 300.48 39.152H302.24Q302.848 39.152 303.376 38.832Q303.904 38.512 304.73600000000005 37.68L309.952 32.4Q311.00800000000004 31.344 311.9200000000001 30.832Q312.83200000000005 30.32 313.66400000000004 30.32Q314.59200000000004 30.32 315.12 30.928Q315.648 31.536 315.648 32.688V58.352000000000004Q315.648 60.688 316.44800000000004 61.903999999999996Q317.24800000000005 63.12 318.752 63.12Q319.968 63.12 320.624 62.512Q321.28000000000003 61.903999999999996 321.68000000000006 61.12Q322.08000000000004 60.336 322.528 59.727999999999994Q322.976 59.12 323.744 59.12Q324.384 59.12 324.76800000000003 59.568Q325.15200000000004 60.016 325.15200000000004 61.104Q325.15200000000004 63.824 323.58400000000006 66.048Q322.016 68.272 319.264 69.584Q316.512 70.896 312.992 70.896Q307.776 70.896 304.928 68.384Q302.08000000000004 65.872 302.08000000000004 60.784V45.391999999999996Q302.08000000000004 44.464 301.744 44.048Q301.408 43.632 300.672 43.312ZM310.976 43.696V39.152H322.656Q323.648 39.152 324.24 39.584Q324.832 40.016 324.832 40.816Q324.832 42.032 323.648 42.864Q322.464 43.696 319.744 43.696Z M360.16 50.544Q360.16 52.784 358.944 54.016Q357.728 55.248 355.456 55.248H336.48V51.92H345.02400000000006Q346.78400000000005 51.92 346.78400000000005 50.256Q346.78400000000005 46.224000000000004 345.85600000000005 44.496Q344.92800000000005 42.768 343.39200000000005 42.768Q342.27200000000005 42.768 341.37600000000003 43.6Q340.48 44.432 339.952 46.144Q339.42400000000004 47.855999999999995 339.42400000000004 50.480000000000004Q339.42400000000004 56.304 342.048 59.008Q344.672 61.712 349.216 61.712Q351.32800000000003 61.712 353.05600000000004 61.232Q354.78400000000005 60.752 356.44800000000004 59.28Q357.37600000000003 58.448 357.856 58.16Q358.336 57.872 358.78400000000005 57.872Q359.42400000000004 57.872 359.72800000000007 58.512Q360.03200000000004 59.152 360.03200000000004 60.08Q360.03200000000004 62.928 358.096 65.408Q356.16 67.888 352.72 69.392Q349.28000000000003 70.896 344.704 70.896Q339.80800000000005 70.896 335.90400000000005 68.96000000000001Q332.00000000000006 67.024 329.72800000000007 63.552Q327.456 60.08 327.456 55.44Q327.456 50.224000000000004 329.53600000000006 46.352000000000004Q331.61600000000004 42.480000000000004 335.6 40.336Q339.58400000000006 38.192 345.216 38.192Q350.17600000000004 38.192 353.504 39.792Q356.83200000000005 41.391999999999996 358.49600000000004 44.176Q360.16 46.96 360.16 50.544Z M386.4320000000001 64.336 385.95200000000006 64.304V31.728Q385.95200000000006 30.704 385.68000000000006 30.272Q385.4080000000001 29.839999999999996 384.8640000000001 29.68L384.1600000000001 29.455999999999996Q383.48800000000006 29.232 383.1840000000001 28.816Q382.88000000000005 28.4 382.88000000000005 27.759999999999998Q382.88000000000005 26.991999999999997 383.29600000000005 26.543999999999997Q383.71200000000005 26.095999999999997 384.8640000000001 25.647999999999996L391.9680000000001 22.896Q393.6000000000001 22.256 394.60800000000006 21.968Q395.61600000000004 21.68 396.5760000000001 21.68Q398.0160000000001 21.68 398.7680000000001 22.496Q399.5200000000001 23.311999999999998 399.5200000000001 24.560000000000002V63.28Q399.5200000000001 64.56 399.7120000000001 65.088Q399.90400000000005 65.616 400.38400000000007 65.84L401.0880000000001 66.16Q401.82400000000007 66.48 402.14400000000006 66.96000000000001Q402.46400000000006 67.44 402.46400000000006 68.08Q402.46400000000006 68.976 401.88800000000003 69.488Q401.31200000000007 70.0 400.03200000000004 70.0H391.87200000000007Q389.72800000000007 70.0 388.08000000000004 68.432Q386.4320000000001 66.864 386.4320000000001 64.72ZM363.29600000000005 55.6Q363.29600000000005 50.384 365.44000000000005 46.464Q367.58400000000006 42.544 371.29600000000005 40.367999999999995Q375.00800000000004 38.192 379.68000000000006 38.192Q383.58400000000006 38.192 386.46400000000006 39.84Q389.34400000000005 41.488 391.4560000000001 44.848L387.9680000000001 47.216Q386.4960000000001 45.104 385.1840000000001 44.224000000000004Q383.87200000000007 43.344 382.33600000000007 43.344Q380.83200000000005 43.344 379.696 44.432Q378.56000000000006 45.519999999999996 377.93600000000004 47.903999999999996Q377.31200000000007 50.288 377.31200000000007 54.224000000000004Q377.31200000000007 57.808 377.9680000000001 60.0Q378.6240000000001 62.192 379.7600000000001 63.2Q380.8960000000001 64.208 382.33600000000007 64.208Q384.12800000000004 64.208 385.58400000000006 63.007999999999996Q387.0400000000001 61.808 388.3520000000001 59.12L390.6240000000001 61.296Q387.90400000000005 65.744 384.46400000000006 68.32Q381.02400000000006 70.896 376.60800000000006 70.896Q372.80000000000007 70.896 369.79200000000003 68.944Q366.78400000000005 66.992 365.0400000000001 63.55200000000001Q363.29600000000005 60.112 363.29600000000005 55.6Z" fill="#1A1A18"/><circle cx="412.3" cy="66.4" r="4.0" fill="#B08D3F"/>
</svg>