<svg xmlns="http://www.w3.org/2000/svg" viewBox="0 0 1200 280" role="img" aria-labelledby="title desc">
<title id="title">Fully Sorted</title>
<desc id="desc">Rounded Touring. Hand-drawn outlined recreation of the selected concept, with a teal border and forest green interlocking FS.</desc>
<rect x="8" y="8" width="264" height="264" rx="43" fill="#faf8f1" stroke="#248b85" stroke-width="14"/>
<g fill="#0b382b">
<path d="M49 29H232a17 17 0 0 1 0 34H58a6 6 0 0 0 0 12H232a17 17 0 0 1 0 34H62a10 10 0 0 0-10 10v64a17 17 0 0 1-34 0V58q0-29 31-29Z" transform="translate(12 0)"/>
<path d="M90 121H244a17 17 0 0 1 0 34H111a6 6 0 0 0 0 12H232q29 0 29 29v26q0 29-29 29H47a17 17 0 0 1 0-34H219a6 6 0 0 0 0-12H99q-24 0-24-24v-36q0-24 15-24Z" transform="translate(-12 0)"/>
</g>
<g fill="#0b382b" transform="translate(320 58) scale(.94)">
<!-- Lettering is paths only. No embedded font or font dependency. -->
<path d="M0 129V35Q0 5 29 5H73Q87 5 87 18T73 31H34Q27 31 27 39V59H63Q77 59 77 72T63 85H27V129Q27 143 13.5 143T0 129Z"/>
<path d="M95 59Q95 45 109 45T123 59V94Q123 115 139 115T155 94V59Q155 45 169 45T183 59V96Q183 143 139 143T95 96Z"/>
<rect x="191" y="5" width="27" height="138" rx="13.5"/>
<rect x="228" y="5" width="27" height="138" rx="13.5"/>
<path d="M264 59Q264 45 278 45T292 59V93Q292 115 308 115T324 93V59Q324 45 338 45T352 59V132Q352 181 309 181Q288 181 278 174Q266 166 273 154Q279 144 293 150Q300 154 309 154Q330 154 325 132Q314 144 300 143Q264 141 264 96Z"/>
<path d="M406 133Q393 126 399 113Q405 100 419 107Q438 119 458 116Q474 114 474 104Q474 94 454 89L436 84Q396 73 397 43Q398 2 447 2Q470 2 488 11Q501 17 494 30Q488 42 475 36Q462 29 447 29Q426 29 426 41Q426 51 445 56L464 62Q504 73 504 104Q504 143 456 144Q428 144 406 133Z"/>
<path fill-rule="evenodd" d="M557 45a49 49 0 1 1 0 98a49 49 0 1 1 0-98Zm0 27a22 22 0 1 0 0 44a22 22 0 1 0 0-44Z"/>
<path d="M613 129V91Q613 45 652 45Q669 45 669 58Q669 72 654 73Q641 75 641 93V129Q641 143 627 143T613 129Z"/>
<path d="M675 34Q675 20 689 20T703 34V47H717Q731 47 731 60T717 73H703V102Q703 116 717 116Q731 116 731 129Q731 143 716 143Q675 143 675 104Z"/>
<path fill-rule="evenodd" d="M777 45Q820 45 823 87Q825 100 811 100H755Q760 121 780 118Q789 118 798 112Q810 105 816 115Q823 126 811 134Q797 144 778 144Q730 144 730 96Q730 45 777 45ZM756 82H796Q793 68 777 68Q762 68 756 82Z"/>
<path fill-rule="evenodd" d="M897 19Q897 5 911 5T925 19V94Q925 144 878 144Q830 144 830 95Q830 46 875 46Q888 46 897 53ZM877 73a22 22 0 1 0 0 44a22 22 0 1 0 0-44Z"/>
</g>
</svg>
