<svg xmlns="http://www.w3.org/2000/svg" viewBox="0 0 96 96" width="96" height="96"><rect width="96" height="96" rx="22" fill="#12283D"/><path d="M35.7655 31.89999999999999Q36.823499999999996 31.89999999999999 37.5595 31.715999999999994Q38.295500000000004 31.531999999999996 38.905 31.359499999999997Q39.5145 31.186999999999998 40.1125 31.186999999999998Q41.216499999999996 31.186999999999998 41.768499999999996 31.727499999999996Q42.320499999999996 32.267999999999994 42.6885 33.556L44.7125 40.547999999999995Q44.9195 41.260999999999996 44.494 41.7555Q44.0685 42.25 43.3095 42.364999999999995Q42.7115 42.456999999999994 42.1135 42.238499999999995Q41.5155 42.019999999999996 41.1245 41.238Q39.8825 38.75399999999999 38.709500000000006 37.454499999999996Q37.536500000000004 36.154999999999994 36.2945 35.672Q35.052499999999995 35.18899999999999 33.534499999999994 35.18899999999999H31.0505V58.99399999999999Q31.0505 59.568999999999996 31.314999999999998 59.97149999999999Q31.5795 60.373999999999995 32.2235 60.51199999999999L33.6035 60.81099999999999Q34.3395 60.971999999999994 34.661500000000004 61.3745Q34.9835 61.776999999999994 34.9835 62.535999999999994Q34.9835 63.248999999999995 34.5005 63.674499999999995Q34.0175 64.1 33.0055 64.1H19.113500000000002Q18.1015 64.1 17.6185 63.674499999999995Q17.1355 63.248999999999995 17.1355 62.535999999999994Q17.1355 61.294 18.3315 60.833999999999996L19.2055 60.51199999999999Q19.8035 60.282 20.091 59.9255Q20.3785 59.568999999999996 20.3785 58.99399999999999V37.00599999999999Q20.3785 36.431 20.091 36.0745Q19.8035 35.717999999999996 19.2055 35.488L18.3315 35.166Q17.1355 34.705999999999996 17.1355 33.464Q17.1355 32.727999999999994 17.6185 32.31399999999999Q18.1015 31.89999999999999 19.113500000000002 31.89999999999999ZM27.2095 47.102999999999994H33.4195Q34.8685 47.102999999999994 35.4895 46.52799999999999Q36.1105 45.952999999999996 36.685500000000005 44.227999999999994Q36.915499999999994 43.538 37.329499999999996 43.26199999999999Q37.7435 42.98599999999999 38.295500000000004 42.98599999999999Q39.6295 42.98599999999999 39.9285 44.25099999999999L41.7225 51.565Q41.929500000000004 52.392999999999994 41.676500000000004 52.852999999999994Q41.423500000000004 53.312999999999995 40.8255 53.54299999999999Q40.1815 53.772999999999996 39.618 53.57749999999999Q39.054500000000004 53.38199999999999 38.548500000000004 52.714999999999996Q37.8815 51.77199999999999 37.295 51.25449999999999Q36.7085 50.736999999999995 35.9495 50.529999999999994Q35.1905 50.32299999999999 33.9715 50.32299999999999H27.2095Z M60.835499999999996 64.78999999999999Q59.2485 64.78999999999999 58.0985 64.46799999999999Q56.9485 64.146 56.1665 63.824Q55.3845 63.501999999999995 54.8555 63.501999999999995Q54.3035 63.501999999999995 53.855000000000004 63.720499999999994Q53.4065 63.93899999999999 52.981 64.215Q52.5555 64.491 52.1185 64.70949999999999Q51.6815 64.928 51.1755 64.928Q50.4625 64.928 50.0025 64.514Q49.542500000000004 64.1 49.3815 63.13399999999999L48.0705 55.291Q47.978500000000004 54.623999999999995 48.289 54.14099999999999Q48.5995 53.657999999999994 49.3125 53.404999999999994Q50.094500000000004 53.12899999999999 50.681 53.41649999999999Q51.2675 53.70399999999999 51.7045 54.55499999999999Q53.1535 57.26899999999999 54.5105 58.763999999999996Q55.8675 60.25899999999999 57.236000000000004 60.845499999999994Q58.6045 61.431999999999995 60.0535 61.431999999999995Q61.962500000000006 61.431999999999995 63.112500000000004 60.546499999999995Q64.2625 59.660999999999994 64.2625 58.02799999999999Q64.2625 56.92399999999999 63.7105 56.09599999999999Q63.158500000000004 55.267999999999994 61.5255 54.48599999999999Q59.8925 53.70399999999999 56.6265 52.760999999999996Q53.0385 51.702999999999996 50.8765 50.230999999999995Q48.7145 48.75899999999999 47.7485 46.61999999999999Q46.7825 44.480999999999995 46.7825 41.513999999999996Q46.7825 38.547 48.2315 36.235499999999995Q49.6805 33.92399999999999 52.36 32.61299999999999Q55.039500000000004 31.301999999999992 58.673500000000004 31.301999999999992Q60.5595 31.301999999999992 61.882 31.623999999999995Q63.204499999999996 31.945999999999998 64.1475 32.2795Q65.09049999999999 32.613 65.7805 32.613Q66.3555 32.613 66.804 32.256499999999996Q67.2525 31.89999999999999 67.77 31.531999999999993Q68.2875 31.163999999999994 69.0695 31.163999999999994Q69.8055 31.163999999999994 70.3115 31.635499999999997Q70.8175 32.107 71.1855 33.41799999999999L73.2325 40.961999999999996Q73.4625 41.812999999999995 73.1635 42.46849999999999Q72.86449999999999 43.123999999999995 72.1055 43.376999999999995Q71.3235 43.629999999999995 70.737 43.330999999999996Q70.1505 43.032 69.7595 42.29599999999999Q68.2875 39.397999999999996 66.62 37.73049999999999Q64.9525 36.062999999999995 63.262 35.36149999999999Q61.5715 34.66 59.9845 34.66Q58.167500000000004 34.66 57.167 35.6605Q56.1665 36.660999999999994 56.1665 38.24799999999999Q56.1665 39.25999999999999 56.6725 40.09949999999999Q57.1785 40.93899999999999 58.777 41.812999999999995Q60.3755 42.687 63.5955 43.81399999999999Q67.11449999999999 45.032999999999994 69.23049999999999 46.51649999999999Q71.34649999999999 47.99999999999999 72.30099999999999 49.966499999999996Q73.2555 51.93299999999999 73.2555 54.60099999999999Q73.2555 57.42999999999999 71.76050000000001 59.741499999999995Q70.2655 62.053 67.494 63.421499999999995Q64.7225 64.78999999999999 60.835499999999996 64.78999999999999Z" fill="#F5EFE6"/><circle cx="80.6" cy="61.5" r="2.9" fill="#B08D3F"/></svg>